<?xml version="1.0" encoding="utf-8"?>
<!-- Generator: Adobe Illustrator 18.0.0, SVG Export Plug-In . SVG Version: 6.00 Build 0)  -->
<!DOCTYPE svg PUBLIC "-//W3C//DTD SVG 1.1//EN" "http://www.w3.org/Graphics/SVG/1.1/DTD/svg11.dtd">
<svg version="1.1" id="Capa_1" xmlns:sketch="http://www.bohemiancoding.com/sketch/ns"
	 xmlns="http://www.w3.org/2000/svg" xmlns:xlink="http://www.w3.org/1999/xlink" x="0px" y="0px" viewBox="0 0 32 32"
	 enable-background="new 0 0 32 32" xml:space="preserve">
<title>icon 21 file php</title>
<desc>Created with Sketch.</desc>
<g>
	<path d="M11,14H9v2h2c0.6,0,1-0.4,1-1C12,14.4,11.6,14,11,14z"/>
	<path d="M25,10H8c-1.7,0-3,1.3-3,3v7c0,1.7,1.3,3,3,3h17c1.7,0,3-1.3,3-3v-7C28,11.3,26.7,10,25,10z M11,17H9v3H8v-5v-2h3
		c1.1,0,2,0.9,2,2C13,16.1,12.1,17,11,17z M19,20h-1v-3h-3v3h-1v-7h1v3h3v-3h1V20z M23,17h-2v3h-1v-5v-2h3c1.1,0,2,0.9,2,2
		C25,16.1,24.1,17,23,17z"/>
	<path d="M23,14h-2v2h2c0.6,0,1-0.4,1-1C24,14.4,23.6,14,23,14z"/>
</g>
</svg>
